v -2.500002384 4.999999046 -0.500000119
v -5.000002384 4.999999046 -0.500000119
v -5.000002384 4.999999046 0.000000000
v -2.500002384 4.999999046 0.000000000
v -0.000001221 4.999999046 -0.500000119
v -0.000001221 4.999999046 0.000000000
v 2.500000238 4.999999046 -0.500000119
v 2.500000238 4.999999046 0.000000000
v 5.000000000 4.999999046 -0.500000119
v 5.000000000 4.999999046 0.000000000
v -2.500002623 -4.999997616 -0.000000000
v -5.000002861 -4.999997616 -0.000000000
v -5.000002861 -5.000000477 -0.500000179
v -2.500002861 -5.000000477 -0.500000179
v -0.000001221 -4.999997616 -0.000000000
v -0.000001526 -5.000000477 -0.500000179
v 2.500000238 -4.999997616 -0.000000000
v 2.500000238 -5.000000477 -0.500000179
v 5.000000000 -4.999997616 -0.000000000
v 5.000000000 -5.000000477 -0.500000179
v -5.000002384 2.500001907 0.000000000
v -5.000002384 4.999999046 0.000000000
v -5.000002384 4.999999046 -0.500000119
v -5.000002384 2.500001907 -0.500000119
v -5.000002384 0.000000610 0.000000000
v -5.000002384 0.000000000 -0.500000119
v -5.000002861 -2.499998331 -0.000000000
v -5.000002861 -2.499999762 -0.500000119
v -5.000002861 -5.000000477 -0.500000179
v -5.000002861 -4.999997616 -0.000000000
v 5.000000000 -2.499998331 -0.000000000
v 5.000000000 -4.999997616 -0.000000000
v 5.000000000 -5.000000477 -0.500000179
v 5.000000000 -2.499999762 -0.500000119
v 5.000000000 0.000000610 0.000000000
v 5.000000000 0.000000000 -0.500000119
v 5.000000000 2.500001907 0.000000000
v 5.000000000 2.500001907 -0.500000119
v 5.000000000 4.999999046 0.000000000
v 5.000000000 4.999999046 -0.500000119
v -5.000002861 -2.499998331 -0.000000000
v -5.000002861 -4.999997616 -0.000000000
v -2.500002623 -4.999997616 -0.000000000
v -2.500002861 -2.499998331 -0.000000000
v -0.000001221 -4.999997616 -0.000000000
v -5.000002384 0.000000610 0.000000000
v -0.000001221 -2.499998331 -0.000000000
v 2.500000238 -4.999997616 -0.000000000
v -2.500002384 0.000001221 0.000000000
v -5.000002384 2.500001907 0.000000000
v 2.500000238 -2.499998331 -0.000000000
v 5.000000000 -4.999997616 -0.000000000
v 5.000000000 -2.499998331 -0.000000000
v -0.000001221 0.000000610 0.000000000
v -2.500002384 2.500001907 0.000000000
v -5.000002384 4.999999046 0.000000000
v -2.500002384 4.999999046 0.000000000
v 2.500000238 0.000000610 0.000000000
v 5.000000000 0.000000610 0.000000000
v -0.000001221 2.500001907 0.000000000
v -0.000001221 4.999999046 0.000000000
v 2.500000238 2.500001907 0.000000000
v 5.000000000 2.500001907 0.000000000
v 2.500000238 4.999999046 0.000000000
v 5.000000000 4.999999046 0.000000000
v -5.000002384 2.500001907 -0.500000119
v -5.000002384 4.999999046 -0.500000119
v -2.500002384 4.999999046 -0.500000119
v -2.500002384 2.500001907 -0.500000119
v -0.000001221 4.999999046 -0.500000119
v -5.000002384 0.000000000 -0.500000119
v -0.000001221 2.500001907 -0.500000119
v 2.500000238 4.999999046 -0.500000119
v -2.500002861 0.000000000 -0.500000119
v -5.000002861 -2.499999762 -0.500000119
v 2.500000238 2.500001907 -0.500000238
v 5.000000000 4.999999046 -0.500000119
v 5.000000000 2.500001907 -0.500000119
v -0.000001221 -0.000000610 -0.500000119
v -2.500002623 -2.499999762 -0.500000119
v -5.000002861 -5.000000477 -0.500000179
v -2.500002861 -5.000000477 -0.500000179
v 2.500000238 -0.000000610 -0.500000298
v 5.000000000 0.000000000 -0.500000119
v -0.000001221 -2.499999762 -0.500000119
v -0.000001526 -5.000000477 -0.500000179
v 2.500000238 -2.499999762 -0.500000119
v 5.000000000 -2.499999762 -0.500000119
v 2.500000238 -5.000000477 -0.500000179
v 5.000000000 -5.000000477 -0.500000179
f 1 2 3
f 3 4 1
f 5 1 4
f 4 6 5
f 7 5 6
f 6 8 7
f 9 7 8
f 8 10 9
f 11 12 13
f 13 14 11
f 15 11 14
f 14 16 15
f 17 15 16
f 16 18 17
f 19 17 18
f 18 20 19
f 21 22 23
f 23 24 21
f 25 21 24
f 24 26 25
f 27 25 26
f 26 28 27
f 27 28 29
f 29 30 27
f 31 32 33
f 33 34 31
f 35 31 34
f 34 36 35
f 37 35 36
f 36 38 37
f 39 37 38
f 38 40 39
f 41 42 43
f 43 44 41
f 44 43 45
f 46 41 44
f 45 47 44
f 47 45 48
f 44 49 46
f 49 44 47
f 50 46 49
f 48 51 47
f 51 48 52
f 52 53 51
f 47 54 49
f 54 47 51
f 49 55 50
f 55 49 54
f 56 50 55
f 55 57 56
f 58 51 53
f 51 58 54
f 53 59 58
f 54 60 55
f 57 55 60
f 60 54 58
f 60 61 57
f 62 58 59
f 58 62 60
f 61 60 62
f 59 63 62
f 62 64 61
f 64 62 63
f 63 65 64
f 66 67 68
f 68 69 66
f 69 68 70
f 71 66 69
f 70 72 69
f 72 70 73
f 69 74 71
f 74 69 72
f 75 71 74
f 73 76 72
f 76 73 77
f 77 78 76
f 72 79 74
f 79 72 76
f 74 80 75
f 80 74 79
f 81 75 80
f 80 82 81
f 83 76 78
f 76 83 79
f 78 84 83
f 79 85 80
f 82 80 85
f 85 79 83
f 85 86 82
f 87 83 84
f 83 87 85
f 86 85 87
f 84 88 87
f 87 89 86
f 89 87 88
f 88 90 89
