v 0.500000000 -0.500000000 -0.500000000
v 0.000000000 -0.500000000 -0.500000000
v 0.500000000 0.000000000 -0.500000000
v 0.000000000 0.000000000 -0.500000000
v -0.500000000 -0.500000000 -0.500000000
v 0.500000000 0.500000000 -0.500000000
v -0.500000000 0.000000000 -0.500000000
v 0.000000000 0.500000000 -0.500000000
v -0.500000000 0.500000000 -0.500000000
v 0.500000000 -0.000000000 0.500000000
v 0.000000000 -0.500000000 0.500000000
v 0.500000000 -0.500000000 0.500000000
v 0.000000000 -0.000000000 0.500000000
v 0.500000000 0.500000000 0.500000000
v -0.500000000 -0.500000000 0.500000000
v 0.000000000 0.500000000 0.500000000
v -0.500000000 -0.000000000 0.500000000
v -0.500000000 0.500000000 0.500000000
v 0.500000000 -0.500000000 -0.000000000
v 0.000000000 -0.500000000 -0.500000000
v 0.500000000 -0.500000000 -0.500000000
v 0.000000000 -0.500000000 -0.000000000
v 0.500000000 -0.500000000 0.500000000
v -0.500000000 -0.500000000 -0.500000000
v 0.000000000 -0.500000000 0.500000000
v -0.500000000 -0.500000000 -0.000000000
v -0.500000000 -0.500000000 0.500000000
v 0.500000000 0.500000000 0.000000000
v 0.500000000 0.000000000 -0.500000000
v 0.500000000 0.500000000 -0.500000000
v 0.500000000 -0.000000000 -0.000000000
v 0.500000000 0.500000000 0.500000000
v 0.500000000 -0.500000000 -0.500000000
v 0.500000000 -0.000000000 0.500000000
v 0.500000000 -0.500000000 -0.000000000
v 0.500000000 -0.500000000 0.500000000
v -0.500000000 0.500000000 0.000000000
v 0.000000000 0.500000000 -0.500000000
v -0.500000000 0.500000000 -0.500000000
v 0.000000000 0.500000000 0.000000000
v -0.500000000 0.500000000 0.500000000
v 0.500000000 0.500000000 -0.500000000
v 0.000000000 0.500000000 0.500000000
v 0.500000000 0.500000000 0.000000000
v 0.500000000 0.500000000 0.500000000
v -0.500000000 -0.500000000 -0.000000000
v -0.500000000 0.000000000 -0.500000000
v -0.500000000 -0.500000000 -0.500000000
v -0.500000000 -0.000000000 -0.000000000
v -0.500000000 -0.500000000 0.500000000
v -0.500000000 0.500000000 -0.500000000
v -0.500000000 -0.000000000 0.500000000
v -0.500000000 0.500000000 0.000000000
v -0.500000000 0.500000000 0.500000000
f 1 2 3
f 2 4 3
f 2 5 4
f 3 4 6
f 5 7 4
f 4 8 6
f 4 7 8
f 7 9 8
f 10 11 12
f 10 13 11
f 14 13 10
f 13 15 11
f 14 16 13
f 13 17 15
f 16 17 13
f 16 18 17
f 19 20 21
f 19 22 20
f 23 22 19
f 22 24 20
f 23 25 22
f 22 26 24
f 25 26 22
f 25 27 26
f 28 29 30
f 28 31 29
f 32 31 28
f 31 33 29
f 32 34 31
f 31 35 33
f 34 35 31
f 34 36 35
f 37 38 39
f 37 40 38
f 41 40 37
f 40 42 38
f 41 43 40
f 40 44 42
f 43 44 40
f 43 45 44
f 46 47 48
f 46 49 47
f 50 49 46
f 49 51 47
f 50 52 49
f 49 53 51
f 52 53 49
f 52 54 53
